<svg id="b9987922-c474-4daa-a6ab-b5db1b59489b" data-name="Layer 1" xmlns="http://www.w3.org/2000/svg" viewBox="0 0 69.26185 69.26185"><defs><style>.bb07757c-20e5-447d-b739-ae9eeb33dfc3{fill:#ef5b5b;stroke:#ef5b5b;stroke-width:1.33807px;}.bb07757c-20e5-447d-b739-ae9eeb33dfc3,.e389f128-6872-4042-b8ff-a99ab1a11fae,.e720ecc1-2ab9-4eb5-8677-32c2d3f018b8{stroke-miterlimit:10;}.e039de24-0cc5-467f-bcc0-dc6c2306e7c4{fill:#4d7582;}.a233b3c7-8036-4b68-b278-1eb16cfc0fed,.f7ed51a8-2125-4bb1-b6d6-f63f7a33d70f{fill:#fff;}.e389f128-6872-4042-b8ff-a99ab1a11fae,.e720ecc1-2ab9-4eb5-8677-32c2d3f018b8,.fdd56cc7-0072-4620-ad21-a2284319f960{fill:none;}.e389f128-6872-4042-b8ff-a99ab1a11fae,.e720ecc1-2ab9-4eb5-8677-32c2d3f018b8,.f7ed51a8-2125-4bb1-b6d6-f63f7a33d70f,.fdd56cc7-0072-4620-ad21-a2284319f960{stroke:#fff;}.e720ecc1-2ab9-4eb5-8677-32c2d3f018b8{stroke-width:1.60345px;}.e389f128-6872-4042-b8ff-a99ab1a11fae,.fdd56cc7-0072-4620-ad21-a2284319f960{stroke-linecap:round;}.e389f128-6872-4042-b8ff-a99ab1a11fae{stroke-width:0.75028px;}.f7ed51a8-2125-4bb1-b6d6-f63f7a33d70f,.fdd56cc7-0072-4620-ad21-a2284319f960{stroke-linejoin:round;}.fdd56cc7-0072-4620-ad21-a2284319f960{stroke-width:1.13366px;}.f7ed51a8-2125-4bb1-b6d6-f63f7a33d70f{stroke-width:0.56683px;}</style></defs><title>Artboard 20 copy 2</title><circle class="bb07757c-20e5-447d-b739-ae9eeb33dfc3" cx="34.63093" cy="34.63093" r="33.96189"/><path class="e039de24-0cc5-467f-bcc0-dc6c2306e7c4" d="M40.95563,19.39093h.82487a6.41927,6.41927,0,0,1,6.41927,6.41927V51.18863a3.10145,3.10145,0,0,1-3.10145,3.10145H37.6378a3.10145,3.10145,0,0,1-3.10145-3.10145V25.8102A6.41927,6.41927,0,0,1,40.95563,19.39093Z" transform="matrix(0.9384, -0.34555, 0.34555, 0.9384, -10.18207, 16.56434)"/><rect class="e039de24-0cc5-467f-bcc0-dc6c2306e7c4" x="32.95869" y="17.19072" width="4.75918" height="6.55025" rx="2.13693" transform="translate(-4.89518 13.47202) rotate(-20.21564)"/><rect class="a233b3c7-8036-4b68-b278-1eb16cfc0fed" x="30.4715" y="12.95281" width="4.75917" height="1.51742" rx="0.75871" transform="translate(-2.71441 12.19648) rotate(-20.21564)"/><rect class="e039de24-0cc5-467f-bcc0-dc6c2306e7c4" x="32.13481" y="13.84109" width="3.22395" height="4.60565" rx="0.57571" transform="translate(-3.49975 12.65583) rotate(-20.21564)"/><path class="e039de24-0cc5-467f-bcc0-dc6c2306e7c4" d="M37.178,18.57549l4.12986,2.50432-9.95874,3.29185A23.08239,23.08239,0,0,0,32.712,20.22"/><rect class="a233b3c7-8036-4b68-b278-1eb16cfc0fed" x="30.18172" y="15.65734" width="2.59281" height="0.84437" rx="0.42218" transform="matrix(0.9384, -0.34555, 0.34555, 0.9384, -3.61726, 11.86792)"/><path class="e039de24-0cc5-467f-bcc0-dc6c2306e7c4" d="M29.57608,15.5923l-1.42022.32841a1.13621,1.13621,0,0,0-.81023,1.49962l.12618.34267a1.13621,1.13621,0,0,0,1.58929.616l1.294-.67108a1.13621,1.13621,0,0,0,.54314-1.40127h0A1.1362,1.1362,0,0,0,29.57608,15.5923Z"/><rect class="a233b3c7-8036-4b68-b278-1eb16cfc0fed" x="30.82586" y="16.67483" width="7.06199" height="2.25165" rx="1.12582" transform="translate(-4.03467 12.96871) rotate(-20.21564)"/><circle class="e720ecc1-2ab9-4eb5-8677-32c2d3f018b8" cx="35.55164" cy="39.17113" r="3.55193"/><path class="e389f128-6872-4042-b8ff-a99ab1a11fae" d="M41.03131,41.51479a.75271.75271,0,0,1-.03819-.08654.97711.97711,0,1,1,1.20538.46007"/><path class="e389f128-6872-4042-b8ff-a99ab1a11fae" d="M43.58756,42.86786l-.90891.3347c-.502.18484-.93745.25721-1.09933-.18241a.91945.91945,0,0,1,.631-1.13618"/><path class="fdd56cc7-0072-4620-ad21-a2284319f960" d="M15.77676,43.01251h8.31382a.10284.10284,0,0,0,.10142-.08583l.77563-4.62552a.10284.10284,0,0,1,.20338.0035l1.1862,8.9556c.01545.11661.1829.12013.18908.08494l1.02753-5.85287s.035-.28083.10752-.2295c.06457.04569.10335.22836.10335.22836l.45618,1.44936a.10283.10283,0,0,0,.09809.072h7.9895"/><path class="f7ed51a8-2125-4bb1-b6d6-f63f7a33d70f" d="M15.80985,43.31756a1.79449,1.79449,0,0,0,.2449-.10124c.15455-.06953.30518-.14762.45237-.23157a9.06154,9.06154,0,0,0,.85017-.56l.0887-.06525a15.38334,15.38334,0,0,0,1.41208-1.20316,9.27936,9.27936,0,0,0,1.93884-2.59841,5.17174,5.17174,0,0,0,.623-2.67709,2.99146,2.99146,0,0,0-2.0659-2.68434,2.73,2.73,0,0,0-1.33314-.03685,3.17959,3.17959,0,0,0-2.33249,1.84626,3.19052,3.19052,0,0,0-2.33562-1.84628,2.73008,2.73008,0,0,0-1.33325.03694,2.99148,2.99148,0,0,0-2.06566,2.68427,5.17182,5.17182,0,0,0,.623,2.67709,9.2794,9.2794,0,0,0,1.93885,2.59841,15.1264,15.1264,0,0,0,1.47586,1.25,9.234,9.234,0,0,0,.82419.53922q.21357.12327.43468.23279a2.15385,2.15385,0,0,0,.35934.14658A.3654.3654,0,0,0,15.80985,43.31756Z"/></svg>