<svg xmlns="http://www.w3.org/2000/svg" xmlns:xlink="http://www.w3.org/1999/xlink" viewBox="0 0 69.26185 69.26185"><defs><style>.b7d8a8a4-09ba-46e2-b084-2e1604555b35{fill:none;}.bec5912f-4412-4674-ba45-342379abd40b{isolation:isolate;}.b0aebfbe-c61e-4112-a3c0-a21b1a5b181c{clip-path:url(#aa765d1c-ecaa-4a48-8a87-f328d2ff544b);}.b2de8632-d6df-47a1-80fa-cfba7a5cbc1c{fill:#a7a9ac;opacity:0.33;mix-blend-mode:multiply;}.a50c6e98-e901-48e4-9f65-9a96cbe4fd7a{fill:#1a242d;}.f323044d-c580-483e-91da-11c63c2651da{fill:#566345;}.b4489318-6989-4764-b3c3-8f90d08206d0{fill:#63774e;}.b8ee53cc-7aeb-44a3-8c7f-840f4c1e0db8{fill:#ef5b5b;stroke:#ef5b5b;stroke-miterlimit:10;stroke-width:1.33807px;}.e1a606bb-04e1-45a6-99ad-930aa4aa625b{fill:#4d7582;}.a1e0b408-c045-4126-a626-f6cd01f8578e{fill:#fff;}</style><clipPath id="aa765d1c-ecaa-4a48-8a87-f328d2ff544b"><rect class="b7d8a8a4-09ba-46e2-b084-2e1604555b35" x="8.93103" y="-69.8346" width="44.35003" height="40.54825"/></clipPath></defs><title>Artboard 31 copy</title><g class="bec5912f-4412-4674-ba45-342379abd40b"><g id="f5334edd-0b5e-4ed5-92c2-e107abb3e196" data-name="Layer 1"><g class="b0aebfbe-c61e-4112-a3c0-a21b1a5b181c"><ellipse class="b2de8632-d6df-47a1-80fa-cfba7a5cbc1c" cx="30.30327" cy="43.62619" rx="25.93784" ry="6.36826"/><path class="a50c6e98-e901-48e4-9f65-9a96cbe4fd7a" d="M33.42839,38.74117a3.13148,3.13148,0,0,0-2.01772.43482,3.108,3.108,0,0,0-.99411,2.52638,1.96259,1.96259,0,0,0,.19321,1.08291,2.17333,2.17333,0,0,0,.73855.68906,8.8448,8.8448,0,0,0,4.51624,1.401,4.79622,4.79622,0,0,0,2.97567-.75326,2.37962,2.37962,0,0,0,.94808-2.68077c-.41312-1.03151-1.62054-1.49605-2.70123-1.84806a4.29614,4.29614,0,0,1-1.55738-.64063,1.64423,1.64423,0,0,0-.31477-.23889c-.22058-.109-.54835.03978-.79153.04278C34.092,38.76055,33.7601,38.73786,33.42839,38.74117Z"/><path class="a50c6e98-e901-48e4-9f65-9a96cbe4fd7a" d="M22.375,38.68213a3.91672,3.91672,0,0,0-2.28009.43342,2.92773,2.92773,0,0,0-1.12178,2.52569,1.76923,1.76923,0,0,0,.21911,1.08306,2.36849,2.36849,0,0,0,.83518.68957A10.94876,10.94876,0,0,0,25.13263,44.818a5.96923,5.96923,0,0,0,3.36254-.7512,2.24206,2.24206,0,0,0,1.06965-2.68011c-.46762-1.03181-1.83256-1.4972-3.05419-1.84995a5.22841,5.22841,0,0,1-1.76058-.64172,1.85784,1.85784,0,0,0-.35592-.23911c-.24936-.10916-.61971.0394-.89455.04223C23.125,38.702,22.74992,38.679,22.375,38.68213Z"/><path class="f323044d-c580-483e-91da-11c63c2651da" d="M24.63694-13.67924c.23173.30091-.00812,1.72174-.00966,2.08634-.00615,1.45751.00647,2.91622.07681,4.37212a11.65606,11.65606,0,0,0,.54611,4.0821c.50425,1.13347,1.5274,1.18559,2.15053,2.05652.75142,1.05023.63,3.64225.80542,4.93587A85.74777,85.74777,0,0,1,28.933,14.12693c.14365,8.2633.29368,16.5355.45876,24.76734,1.00864.989,1.82776.54189,3.04608.5666.38251.00775,4.60076.20749,4.5377-.35858-.44223-3.96979-.01736-7.79164.11109-11.7503q.20319-6.26115.11228-12.527-.09944-6.54922-.52667-13.08595c-.28-4.27606-1.0002-8.61086-.92288-12.88916q.0129-.71337.00782-1.42692a1.56285,1.56285,0,0,0-.22658-.975,1.17337,1.17337,0,0,0-.95034-.33836,20.61017,20.61017,0,0,0-3.17737.53791C29.16772-12.99928,26.86492-13.45975,24.63694-13.67924Z"/><path class="b4489318-6989-4764-b3c3-8f90d08206d0" d="M22.45823-16.14841c-3.28266-2.96438-3.30972,3.55077-3.59493,5.59647-.497,3.565-.75025,7.15994-.90018,10.75482-.07731,1.85355-.12711,3.71032-.04048,5.56346.30126,6.44448.361,12.78228.57382,19.228.08328,2.52264.191,5.04433.30778,7.5655q.08528,1.84038.1757,3.68049c.03055.62845-.22195,2.845.2524,3.27358a.83512.83512,0,0,0,.454.16257,24.62259,24.62259,0,0,0,5.61447.14963,1.28544,1.28544,0,0,0,.80473-.2522,1.40677,1.40677,0,0,0,.30913-.97018C27.03993,28.107,27.53539,17.742,27.76506,7.24174c.03351-1.53215.1276-3.06039.18633-4.59145.03255-.849-.15806-2.17972.46977-2.87528.67573-.7486,2.06711-.78591,2.84348-1.59,1.27186-1.3172,1.58377-3.37847,2.31352-4.997a38.93533,38.93533,0,0,0,2.196-6.23792,1.70533,1.70533,0,0,0-.27189-1.53051,2.16145,2.16145,0,0,0-.38122-.33918l-.82481-.62461c-1.26063-.00281-2.57569-.1544-3.83632-.15721a51.22549,51.22549,0,0,1-7.97928-.4338"/></g><circle class="b8ee53cc-7aeb-44a3-8c7f-840f4c1e0db8" cx="34.63093" cy="34.63093" r="33.96189"/><path class="e1a606bb-04e1-45a6-99ad-930aa4aa625b" d="M45.67121,46.73643a8.59076,8.59076,0,0,0-6.87869-8.41753,12.49836,12.49836,0,0,1-8.38518-8.06608,8.66208,8.66208,0,0,0-16.26465-.60427h0A19.95511,19.95511,0,0,0,39.21753,55.057a8.523,8.523,0,0,0,1.76158-.66771q.24248-.10562.48159-.21742l-.032-.02869A8.58241,8.58241,0,0,0,45.67121,46.73643Z"/><circle class="a1e0b408-c045-4126-a626-f6cd01f8578e" cx="23.36936" cy="32.55269" r="6.63883"/><path class="e1a606bb-04e1-45a6-99ad-930aa4aa625b" d="M22.79962,32.40051a1.09292,1.09292,0,0,1-.76062.93121,1.38017,1.38017,0,0,1-.63769.03388.99889.99889,0,0,1-.53186-.31659c.21618-.03321.38281-.01691.55114-.05381a1.86623,1.86623,0,0,0,.46448-.11984A3.28057,3.28057,0,0,0,22.79962,32.40051Z"/><path class="e1a606bb-04e1-45a6-99ad-930aa4aa625b" d="M27.46478,30.5274a.897.897,0,0,1-.40674.84711.98887.98887,0,0,1-.48791.13873.67363.67363,0,0,1-.45166-.184,1.73313,1.73313,0,0,0,.7312-.27609A3.577,3.577,0,0,0,27.46478,30.5274Z"/><path class="e1a606bb-04e1-45a6-99ad-930aa4aa625b" d="M16.22669,36.593a10.51553,10.51553,0,0,0,1.38087,3.76552,7.60813,7.60813,0,0,0,3.535,2.55413,4.54481,4.54481,0,0,0,1.98728.40366,3.28929,3.28929,0,0,0,1.99577-.96943c.53368-.51311.79957-1.25707,1.33608-1.74355.302-.27376.81633-.22739,1.20085-.363a3.35961,3.35961,0,0,0,1.672-1.44889,6.82488,6.82488,0,0,0,.69843-1.299c.13592-.38853.142-.80623.23953-1.20288a13.49177,13.49177,0,0,0,.1998-3.43615c-.3236.52156-.52334,1.15311-.82884,1.69705-.33988.60517-.81461,1.17419-1.10123,1.78171a1.67249,1.67249,0,0,1-1.15255,1.08112,9.041,9.041,0,0,0-1.829.24321,6.164,6.164,0,0,1-2.18228.77585c-.78328.046-1.00088-.63223-1.71188-.769-.6616-.1273-1.37382.12829-2.00233-.19228-.83192-.42438-.92343-1.56062-1.42926-2.34562-.322-.49964-.88442-.7117-1.15216-1.2353a3.081,3.081,0,0,1-.23039-2.06782c.11758-.49613.60446-.82821.70588-1.322.10947-.53293-.11108-.98254.21824-1.52056a1.49,1.49,0,0,0,.20088-.37287.32694.32694,0,0,0-.12311-.37405.40624.40624,0,0,0-.41111.08882c-.52442.38469-.44327.81114-.61979,1.34119a10.14105,10.14105,0,0,0-.63385,1.53966c-.16567.9405.0934,1.95291-.00266,2.92128a6.69014,6.69014,0,0,0-.176,1.26353A8.44958,8.44958,0,0,0,16.22669,36.593Z"/><path class="a1e0b408-c045-4126-a626-f6cd01f8578e" d="M48.26088,23.94806a2.23662,2.23662,0,0,0-2.18058.44854.67656.67656,0,0,0-.237.35812.60953.60953,0,0,0,.09016.39707,2.8327,2.8327,0,0,0,1.4734,1.02073,2.04636,2.04636,0,0,1,1.309,1.18c.03367.13219.059.29334.18411.34767.12356.05366.25929-.03591.36238-.12263A9.4,9.4,0,0,0,50.291,26.56784a.43582.43582,0,0,0,.11812-.20059c.03375-.19428-.18919-.33431-.38393-.36525a1.01253,1.01253,0,0,1-.5597-.15592.57216.57216,0,0,1-.00146-.69658,3.7901,3.7901,0,0,0,.41-.631c.18237-.50679-.19107-1.02987-.54082-1.43947a.59883.59883,0,0,0-1.04159-.10242l-.68415.60754"/><path class="e1a606bb-04e1-45a6-99ad-930aa4aa625b" d="M37.11642,28.56124a3.50218,3.50218,0,0,0,1.72306-.72386,15.083,15.083,0,0,0,2.92431-2.61981"/><path class="e1a606bb-04e1-45a6-99ad-930aa4aa625b" d="M37.6902,30.53263a4.6086,4.6086,0,0,1,5.29669.639"/></g></g></svg>