<svg xmlns="http://www.w3.org/2000/svg" xmlns:xlink="http://www.w3.org/1999/xlink" viewBox="0 0 69.26185 69.37384"><defs><style>.a803a748-1ee7-4f51-b666-966fea5e48cb{fill:none;}.a83cafb4-40fb-4680-91eb-4fd7ab9291bc{isolation:isolate;}.abe5865a-7619-4383-a7f4-71ea597cc942{fill:#ef5b5b;stroke:#ef5b5b;stroke-miterlimit:10;stroke-width:1.33807px;}.aedea1cd-c602-4cb7-8cd7-08f0861c45c8{clip-path:url(#bff69146-1174-4dd7-b3af-51cc289b6384);}.a422c399-ba0b-4234-bda5-a7069bc3fb2e{fill:#fff;}.ac48a7d2-8030-4583-a3e7-6f2690109a6b{fill:#4d7582;}.e37a02a7-d0dd-43a8-8ed2-4bce00184424{fill:#63774e;}.b15b5fe0-f2ca-48d3-95a9-ca3e3ed729b9{fill:#938c6c;}.bb051c71-5263-47b9-8777-2f2c6b6d0881{clip-path:url(#f17fd600-0d94-421c-8e2d-f7725b3c9b21);}.a3f59f4c-0c29-47a9-aa0e-2d2aa92517dd{fill:#a7a9ac;opacity:0.33;mix-blend-mode:multiply;}.afc9840e-25b9-41ff-8294-69ddeeeb2953{fill:#1a242d;}.adc831f0-8eac-4a5f-b543-2268bafb43db{fill:#566345;}</style><clipPath id="bff69146-1174-4dd7-b3af-51cc289b6384"><rect class="a803a748-1ee7-4f51-b666-966fea5e48cb" x="8.93103" y="14.4128" width="44.35003" height="40.54825"/></clipPath><clipPath id="f17fd600-0d94-421c-8e2d-f7725b3c9b21"><rect class="a803a748-1ee7-4f51-b666-966fea5e48cb" x="6.46152" y="-73.09116" width="44.35003" height="40.54825"/></clipPath></defs><title>Artboard 33 copy</title><g class="a83cafb4-40fb-4680-91eb-4fd7ab9291bc"><g id="a5b13761-c053-43e7-b4cc-17efaf64c134" data-name="Layer 1"><circle class="abe5865a-7619-4383-a7f4-71ea597cc942" cx="34.63093" cy="34.63093" r="33.96189"/><g class="aedea1cd-c602-4cb7-8cd7-08f0861c45c8"><path class="a422c399-ba0b-4234-bda5-a7069bc3fb2e" d="M46.53216,71.69077c1.003,1.2107,2.57885,1.59529,3.6549,2.71273.81824.84987,1.88226,1.49612,1.55822-.30153.0037.02058,1.14832.40829,1.295.49744.45218.27471.805.70539,1.37584.73926a1.69341,1.69341,0,0,0,1.508-.89154,2.1882,2.1882,0,0,0-.184-2.5386c-2.408-2.59093-6.2461-3.12544-9.86136-3.553A3.49265,3.49265,0,0,0,46.53216,71.69077Z"/><path class="ac48a7d2-8030-4583-a3e7-6f2690109a6b" d="M38.94125,57.62326A25.974,25.974,0,0,0,43.113,62.29307a41.50288,41.50288,0,0,0,4.35427,3.76721q1.17578.88225,2.41246,1.67919c.42117.2713.80918.36844.87722.85073a4.59712,4.59712,0,0,1-.46644,1.77043c-.27.72726-.695,1.607-1.51211,1.78532a7.75259,7.75259,0,0,1-2.49157.13715c-.919-.126-1.80271-1.06122-2.51568-1.60922l-8.59029-6.60264A7.22374,7.22374,0,0,1,33.69814,62.692c-.74788-1.0182-.88181-2.56474-1.25643-3.76558-.52037-1.66808-.96994-3.346-1.57377-4.989a6.1545,6.1545,0,0,1-.379-1.33415c-.30914-2.44091,1.58-5.52792,2.42966-7.73717a23.26914,23.26914,0,0,0,.82651-3.51842c.22532-1.045.35548-2.43447,1.45734-1.39184a9.97263,9.97263,0,0,1,2.1344,3.56136c1.22167,3.72746.25488,8.30872.84648,12.13206A5.6114,5.6114,0,0,0,38.94125,57.62326Z"/><path class="a422c399-ba0b-4234-bda5-a7069bc3fb2e" d="M30.17819,20.72341a7.70162,7.70162,0,0,1,4.98537,1.95132c1.68062,1.45555,2.11449,3.8491,2.20319,5.96027.07681,1.82794.2211,4.99635-.90639,6.56274-.72383,1.00557-3.31062,1.44067-4.40407,1.14569a1.18918,1.18918,0,0,0-1.1288.12683,1.17138,1.17138,0,0,0-.24636.39658,2.27772,2.27772,0,0,0,.07688,2.29032,8.20883,8.20883,0,0,1,1.06716,2.95375,1.79008,1.79008,0,0,1-.3523,1.63467,1.82863,1.82863,0,0,1-1.598.20671,10.46393,10.46393,0,0,1-3.69231-1.56561,3.821,3.821,0,0,1-.96921-.86665c-.91637-1.248-.52724-2.86905-.17843-4.23038.93-3.62979-.6988-7.47509-.16739-11.18426.0909-.63448.24443-1.25807.39772-1.88042a4.65759,4.65759,0,0,1,.51127-1.61824A4.35742,4.35742,0,0,1,27.064,21.57428,6.21593,6.21593,0,0,1,30.17819,20.72341Z"/><path class="ac48a7d2-8030-4583-a3e7-6f2690109a6b" d="M36.23878,22.28562a7.223,7.223,0,0,0-2.34165-2.07476c-.25919-.1353-3.14346-1.20532-2.99459-.554a.47857.47857,0,0,0,.11855.184,1.01247,1.01247,0,0,1,.22711.56085,2.32671,2.32671,0,0,0-1.818-.90155c-.14144,1.75316-2.51359,1.51613-3.5852,2.34492a5.94681,5.94681,0,0,0-2.03171,2.86488c-.85766,2.69236.195,5.39244.9126,8.0043a3.49041,3.49041,0,0,0,.41928,1.13564.9091.9091,0,0,0,1.28179.25847c.64324-.46409-.00923.50567.62777.03335a1.36318,1.36318,0,0,0,.27211-.302c.443-.6035.86252-1.23826,1.35614-1.80147.41045-.46832.44772-.6475-.00051-1.17442a2.3059,2.3059,0,0,1-.53937-1.65164.75128.75128,0,0,1,.163-.46392c.24174-.25991.68656-.15668.98307.04094.88556.59023.90313.79534,1.259-.35414.20171-.65147,2.3021-1.41932,2.95953-1.844.83915-.54156,2.07143-.17475,2.96179-.644C37.782,25.2553,36.90482,23.18114,36.23878,22.28562Z"/><path class="ac48a7d2-8030-4583-a3e7-6f2690109a6b" d="M30.44559,37.94068a.24309.24309,0,0,1,.24074-.10511c.30869.01421.21783.44548.37721.63875.08352.10127.20606.07847.32219.14949A2.77552,2.77552,0,0,1,32.2569,40.122a18.6485,18.6485,0,0,1,.74967,3.5658q1.0555,7.7792,1.331,15.63789.10428,2.98137.09514,5.96525a26.78452,26.78452,0,0,1-9.13373.03569c-.20953-.0355-.27268-6.13306-.29844-6.73228-.09709-2.25847-.18713-4.5173-.25646-6.77682-.06929-2.25835-.11807-4.51741-.13406-6.7768q-.01212-1.712.00182-3.42408a20.77319,20.77319,0,0,1-.07986-2.53439,1.2706,1.2706,0,0,1,.10261-.48456.477.477,0,0,1,.38546-.18031.23183.23183,0,0,1,.09726.05589c.2638.21936.44948.51138.692.75042a3.07988,3.07988,0,0,0,.85409.57191,4.8071,4.8071,0,0,0,1.11092.37783,2.47648,2.47648,0,0,0,1.67911-.314,2.09192,2.09192,0,0,0,.901-1.49166A1.32178,1.32178,0,0,1,30.44559,37.94068Z"/><path class="ac48a7d2-8030-4583-a3e7-6f2690109a6b" d="M17.63282,38.70045a3.77968,3.77968,0,0,1,.47412-.221c.38925-.17124.79574-.29856,1.19195-.452.54236-.21006,1.08846-.41234,1.64706-.57539a11.63812,11.63812,0,0,1,2.40031-.674,9.16447,9.16447,0,0,1,1.73811.09306,2.71212,2.71212,0,0,0,.29382,1.79879,30.64435,30.64435,0,0,0,2.17456,3.46966c.56815.94406,1.41949,1.74175,1.8862,2.72066a7.73,7.73,0,0,0,.40441,1.00945,25.67468,25.67468,0,0,0,.56863-4.54773c.03856-.40232.0652-.81353.13694-1.2087.03271-.18018.06727-.36043.0853-.54282a3.99411,3.99411,0,0,0-.00478-.52177,1.38509,1.38509,0,0,0-.101-.39927,3.56176,3.56176,0,0,1-.12058-.49.51038.51038,0,0,1,.11613-.47665.91589.91589,0,0,1,.4255-.15429,2.79838,2.79838,0,0,1,.57724-.06369,4.67337,4.67337,0,0,1,1.2016.23714c.64449.18364,1.20477.188,1.66935.72a16.19954,16.19954,0,0,1,2.0409,2.95571,11.05226,11.05226,0,0,1,.60036,1.19769,11.08182,11.08182,0,0,1,.59768,3.4453,3.26535,3.26535,0,0,1-.812,2.03353c-.2261.32028-.48006.62749-.67807.96668-.51834.8879-.321,2.19032-.35769,3.17934q-.07378,1.98853-.11612,3.97807-.08525,3.97315-.05554,7.94768a8.58761,8.58761,0,0,1-.35652,2.78887,3.6943,3.6943,0,0,1-.60274,1.2376c-.25692.28132-.60185.31824-.92809.51832-.38811.23821-.671.57583-1.03168.84715-1.56113,1.17433-4.99993.43908-6.81631.33234a24.92825,24.92825,0,0,1-6.54944-.94248,18.077,18.077,0,0,1,.57134-2.41521,15.0969,15.0969,0,0,0-.058-3.57647c-.15651-2.35518-.483-4.69536-.64631-7.05006-.32138-4.63437-2.54664-8.80685-2.68029-13.48791-.01545-.541-.10156-1.08528-.08871-1.63072a2.17456,2.17456,0,0,1,.69956-1.5924A4.08354,4.08354,0,0,1,17.63282,38.70045Z"/><path class="ac48a7d2-8030-4583-a3e7-6f2690109a6b" d="M14.75284,45.92841a43.95623,43.95623,0,0,0-.51639,9.998c.03937.61354.16285,1.33575.71769,1.6006a1.7854,1.7854,0,0,0,.88122.0954l1.35783-.08206c2.01617-.12186,1.88992-2.07938,2.22276-3.66271.45047-2.14294.82589-4.30223,1.369-6.42483a26.843,26.843,0,0,0,1.18622-4.92193c.08117-1.5222.14578-3.6844-2.08355-3.98881-2.64088-.36059-3.86616,1.62189-4.42121,3.89833Q15.04377,44.17389,14.75284,45.92841Z"/><path class="e37a02a7-d0dd-43a8-8ed2-4bce00184424" d="M22.45823,68.099c-3.28266-2.96439-3.30972,3.55076-3.59493,5.59647-.497,3.565-.75025,7.15994-.90018,10.75482-.07731,1.85354-.12711,3.71032-.04048,5.56345.30126,6.44449.361,12.78229.57382,19.228.08328,2.52264.191,5.04432.30778,7.56549q.08528,1.84038.1757,3.6805c.03055.62845-.22195,2.84495.2524,3.27357a.83513.83513,0,0,0,.454.16258,24.62373,24.62373,0,0,0,5.61447.14963,1.28545,1.28545,0,0,0,.80473-.25221,1.40675,1.40675,0,0,0,.30913-.97017c.62528-10.49668,1.12074-20.86172,1.35041-31.36194.03351-1.53215.1276-3.0604.18633-4.59145.03255-.849-.15806-2.17973.46977-2.87528.67573-.7486,2.06711-.78591,2.84348-1.59,1.27186-1.3172,1.58377-3.37847,2.31352-4.99705a38.9351,38.9351,0,0,0,2.196-6.23793,1.70534,1.70534,0,0,0-.27189-1.53051,2.1618,2.1618,0,0,0-.38122-.33917l-.82481-.62461c-1.26063-.00281-2.57569-.15441-3.83632-.15722a51.22426,51.22426,0,0,1-7.97928-.43379"/><path class="b15b5fe0-f2ca-48d3-95a9-ca3e3ed729b9" d="M20.1428,66.80625a5.91272,5.91272,0,0,0-.42859,1.844c.0634.50385.625.67835,1.0085.87a19.781,19.781,0,0,0,4.64441,1.39455,32.625,32.625,0,0,0,6.14558.7157,15.09326,15.09326,0,0,0,2.13742-.0251c.55777-.06808,2.029-.39551,2.22015-1.01713a1.18746,1.18746,0,0,0-.00523-.55983c-.13069-.7153-.19366-1.42965-.27989-2.14528a5.89473,5.89473,0,0,0-1.45095.32483c-.59059.1086-1.17959.326-1.777.38029a15.34131,15.34131,0,0,1-2.38645.009,28.51585,28.51585,0,0,1-7.3223-1.72952c-.54551-.18576-1.09209-.37117-1.62381-.59415-.16812-.0705-.49747-.31088-.6723-.21524-.14265.078-.14969.49418-.18072.6318Q20.159,66.74648,20.1428,66.80625Z"/></g><g class="bb051c71-5263-47b9-8777-2f2c6b6d0881"><ellipse class="a3f59f4c-0c29-47a9-aa0e-2d2aa92517dd" cx="27.83376" cy="40.36963" rx="25.93784" ry="6.36826"/><path class="afc9840e-25b9-41ff-8294-69ddeeeb2953" d="M30.95888,35.48461a3.13142,3.13142,0,0,0-2.01772.43482,3.108,3.108,0,0,0-.99411,2.52638,1.96259,1.96259,0,0,0,.19321,1.08291,2.1733,2.1733,0,0,0,.73855.68905,8.84471,8.84471,0,0,0,4.51624,1.401,4.79616,4.79616,0,0,0,2.97567-.75327,2.3796,2.3796,0,0,0,.94808-2.68076c-.41312-1.03151-1.62054-1.49606-2.70123-1.84806a4.296,4.296,0,0,1-1.55738-.64064,1.64464,1.64464,0,0,0-.31477-.23889c-.22057-.109-.54835.03979-.79153.04279C31.62244,35.504,31.29059,35.4813,30.95888,35.48461Z"/><path class="afc9840e-25b9-41ff-8294-69ddeeeb2953" d="M19.90551,35.42556a3.91672,3.91672,0,0,0-2.28009.43343,2.92774,2.92774,0,0,0-1.12178,2.52569,1.76928,1.76928,0,0,0,.21911,1.08305,2.36828,2.36828,0,0,0,.83518.68957,10.94864,10.94864,0,0,0,5.10519,1.40411,5.96914,5.96914,0,0,0,3.36254-.75119,2.24207,2.24207,0,0,0,1.06965-2.68012c-.46762-1.0318-1.83256-1.49719-3.05419-1.84995a5.2282,5.2282,0,0,1-1.76058-.64172,1.85734,1.85734,0,0,0-.35592-.2391c-.24936-.10916-.61971.0394-.89455.04223C20.65548,35.44541,20.28041,35.42249,19.90551,35.42556Z"/><path class="adc831f0-8eac-4a5f-b543-2268bafb43db" d="M22.16743-16.93581c.23173.30091-.00812,1.72175-.00966,2.08635-.00615,1.4575.00647,2.91622.07681,4.37212a11.65629,11.65629,0,0,0,.54611,4.0821c.50425,1.13347,1.5274,1.18559,2.15053,2.05652.75142,1.05022.63,3.64225.80542,4.93587a85.74776,85.74776,0,0,1,.72689,10.27321c.14365,8.2633.29368,16.53551.45876,24.76735,1.00864.989,1.82776.54188,3.04608.56659.38251.00776,4.60076.20749,4.5377-.35857-.44223-3.9698-.01736-7.79164.1111-11.7503q.20318-6.26115.11227-12.527Q34.63,5.01925,34.20277-1.51748c-.28-4.27606-1.0002-8.61086-.92288-12.88916q.0129-.71337.00782-1.42692a1.56283,1.56283,0,0,0-.22658-.975,1.17337,1.17337,0,0,0-.95034-.33836,20.61014,20.61014,0,0,0-3.17737.5379C26.69821-16.25584,24.39541-16.71632,22.16743-16.93581Z"/><path class="e37a02a7-d0dd-43a8-8ed2-4bce00184424" d="M19.98872-19.405c-3.28266-2.96439-3.30972,3.55077-3.59493,5.59647-.497,3.565-.75025,7.15994-.90018,10.75482-.07731,1.85355-.12711,3.71032-.04048,5.56345.30126,6.44449.36105,12.78229.57382,19.228.08328,2.52264.191,5.04432.30778,7.56549q.08528,1.84039.1757,3.6805c.03055.62845-.22195,2.845.2524,3.27358a.8352.8352,0,0,0,.454.16257,24.62373,24.62373,0,0,0,5.61447.14963,1.28545,1.28545,0,0,0,.80473-.25221,1.40675,1.40675,0,0,0,.30913-.97017c.62529-10.49667,1.12074-20.86172,1.35041-31.36194.03351-1.53215.1276-3.0604.18633-4.59145.03255-.84895-.15806-2.17973.46977-2.87528.67573-.7486,2.06711-.78591,2.84349-1.59,1.27185-1.3172,1.58376-3.37847,2.31351-4.997a38.93412,38.93412,0,0,0,2.196-6.23793,1.70531,1.70531,0,0,0-.27189-1.5305,2.16145,2.16145,0,0,0-.38122-.33918l-.82481-.62461c-1.26063-.00281-2.57569-.1544-3.83632-.15721a51.22556,51.22556,0,0,1-7.97928-.4338"/></g><path class="a422c399-ba0b-4234-bda5-a7069bc3fb2e" d="M52.621,25.56411a2.2366,2.2366,0,0,0-2.18058.44854.67652.67652,0,0,0-.237.35812.60953.60953,0,0,0,.09016.39707,2.83269,2.83269,0,0,0,1.4734,1.02072,2.04635,2.04635,0,0,1,1.309,1.18c.03367.13218.059.29333.18411.34767.12356.05366.25929-.03592.36238-.12263a9.39918,9.39918,0,0,0,1.02857-1.00969.4356.4356,0,0,0,.11812-.20059c.03376-.19427-.18919-.3343-.38393-.36524a1.01258,1.01258,0,0,1-.5597-.15592.57217.57217,0,0,1-.00146-.69659,3.79,3.79,0,0,0,.41-.631c.18237-.50679-.19107-1.02987-.54082-1.43947a.59884.59884,0,0,0-1.04159-.10243l-.68415.60754"/><path class="ac48a7d2-8030-4583-a3e7-6f2690109a6b" d="M41.47651,30.17729a3.50227,3.50227,0,0,0,1.72306-.72386,15.08309,15.08309,0,0,0,2.92432-2.61982"/><path class="ac48a7d2-8030-4583-a3e7-6f2690109a6b" d="M42.05029,32.14868a4.60858,4.60858,0,0,1,5.29669.639"/></g></g></svg>