<svg id="a3921d73-443a-4907-aa26-dc1b8eac5fe0" data-name="Layer 1" xmlns="http://www.w3.org/2000/svg" viewBox="0 0 69.26185 69.26185"><defs><style>.f3e7283f-ee2d-4262-a805-36f2a0a79986{fill:#ef5b5b;stroke:#ef5b5b;stroke-width:1.33807px;}.beefd9c1-ab1d-4067-b5ff-6972ee0326c9,.f3e7283f-ee2d-4262-a805-36f2a0a79986{stroke-miterlimit:10;}.b046cc7c-a0e0-478a-b137-46aa3580b93e{fill:#4d7582;}.beefd9c1-ab1d-4067-b5ff-6972ee0326c9{fill:none;stroke:#fff;stroke-linecap:round;stroke-width:1.70784px;}.a8b75926-cadd-43e7-8c88-bfd710ff3e8c{fill:#fff;}</style></defs><title>Artboard 20 copy</title><circle class="f3e7283f-ee2d-4262-a805-36f2a0a79986" cx="34.63093" cy="34.63093" r="33.96189"/><path class="b046cc7c-a0e0-478a-b137-46aa3580b93e" d="M17.20864,36.65006,28.18135,25.81539l-.50039-.68527L24.73,28.04391l-.0008-2.00451-2.4643.556-7.88336,7.66624s-4.90914-.89518-6.25949,1.30892a1.96625,1.96625,0,0,0,.44341,2.70973c1.86634,1.264,3.498.04927,3.87014,2.97969.17083,1.34523,2.382,3.08457,3.67015,1.81267C17.94383,41.25771,17.20864,36.65006,17.20864,36.65006Z"/><path class="b046cc7c-a0e0-478a-b137-46aa3580b93e" d="M24.694,28.38654,27.646,25.481l.35759.50541L33.364,20.30126c2.93376.29188,6.65725-1.78959,6.736-3.23554.07383-1.35554-1.90494-2.13819-3.44384-2.66764-.73651-1.34319-1.3206-3.91452-2.76707-3.70412-1.557.22634-3.88073,4.7296-3.25153,7.37752L22.22,26.612l2.34.73556Z"/><path class="beefd9c1-ab1d-4067-b5ff-6972ee0326c9" d="M43.12863,36.59915a.70726.70726,0,0,0-.09881.547v4.70271"/><polygon class="b046cc7c-a0e0-478a-b137-46aa3580b93e" points="25.092 35.441 25.092 48.032 39.753 53.866 55.112 48.121 55.112 35.53 39.753 41.275 25.092 35.441"/><polygon class="a8b75926-cadd-43e7-8c88-bfd710ff3e8c" points="25.092 46.289 25.092 48.032 39.753 53.866 55.112 48.121 55.112 46.289 39.753 51.904 25.092 46.289"/><polygon class="a8b75926-cadd-43e7-8c88-bfd710ff3e8c" points="55.112 35.53 39.643 29.829 25.092 35.441 25.092 37.184 39.753 43.278 55.112 37.362 55.112 35.531 39.753 41.275 55.112 35.53"/><line class="beefd9c1-ab1d-4067-b5ff-6972ee0326c9" x1="43.24784" y1="38.87423" x2="43.24784" y2="43.67567"/><path class="b046cc7c-a0e0-478a-b137-46aa3580b93e" d="M32.8009,36.76635a13.462,13.462,0,0,0,.00244-2.17905,4.93109,4.93109,0,0,0-.447-2.02321,2.09577,2.09577,0,0,0-1.56592-1.13862,2.01,2.01,0,0,0-1.05078.10087,1.099,1.099,0,0,0-.71777.78008,1.20426,1.20426,0,0,1,.61694-.97059,2.328,2.328,0,0,1,1.17529-.34067,2.75217,2.75217,0,0,1,2.25708,1.08722A5.86114,5.86114,0,0,1,34.07629,34.377a14.93975,14.93975,0,0,1,.43237,2.38939Z"/><line class="beefd9c1-ab1d-4067-b5ff-6972ee0326c9" x1="33.65486" y1="38.16813" x2="33.65486" y2="41.62473"/><path class="b046cc7c-a0e0-478a-b137-46aa3580b93e" d="M38.05774,33.394a13.49,13.49,0,0,0,.00268-2.179,4.93133,4.93133,0,0,0-.44726-2.02321,2.09539,2.09539,0,0,0-1.56592-1.13863,2.01011,2.01011,0,0,0-1.05078.10087,1.09907,1.09907,0,0,0-.71778.78009,1.20482,1.20482,0,0,1,.61695-.97059,2.3281,2.3281,0,0,1,1.17529-.34068A2.75186,2.75186,0,0,1,38.328,28.71005a5.85779,5.85779,0,0,1,1.00513,2.29458,14.96761,14.96761,0,0,1,.43261,2.38939Z"/><path class="b046cc7c-a0e0-478a-b137-46aa3580b93e" d="M42.29846,36.26043a22.65474,22.65474,0,0,1,.54346-3.56685,8.51587,8.51587,0,0,1,1.37939-3.40745,4.00534,4.00534,0,0,1,3.24243-1.66092,3.4447,3.4447,0,0,1,1.749.45447,1.79845,1.79845,0,0,1,.96094,1.42182,1.69318,1.69318,0,0,0-1.06177-1.23131,3.12622,3.12622,0,0,0-1.62451-.21468,3.34961,3.34961,0,0,0-2.55127,1.71231,7.5711,7.5711,0,0,0-.82153,3.13609,21.20916,21.20916,0,0,0-.10815,3.35652Z"/></svg>